<svg xmlns="http://www.w3.org/2000/svg" width="1200" height="420" viewBox="0 0 1200 420" role="img" aria-label="UtopiaKernel Banner">
  <defs>
    <linearGradient id="bg" x1="0" y1="0" x2="1" y2="1">
      <stop offset="0" stop-color="#f6f8fa"/>
      <stop offset="1" stop-color="#ffffff"/>
    </linearGradient>
    <linearGradient id="accent" x1="0" y1="0" x2="1" y2="0">
      <stop offset="0" stop-color="#0969da" stop-opacity="0.9"/>
      <stop offset="1" stop-color="#58a6ff" stop-opacity="0.9"/>
    </linearGradient>
    <filter id="soft" x="-20%" y="-20%" width="140%" height="140%">
      <feGaussianBlur in="SourceGraphic" stdDeviation="6" result="b"/>
      <feColorMatrix in="b" type="matrix"
        values="1 0 0 0 0
                0 1 0 0 0
                0 0 1 0 0
                0 0 0 0.18 0" result="bb"/>
      <feMerge>
        <feMergeNode in="bb"/>
        <feMergeNode in="SourceGraphic"/>
      </feMerge>
    </filter>
  </defs>

  <rect x="0" y="0" width="1200" height="420" fill="url(#bg)"/>

  <g opacity="0.9">
    <circle cx="1010" cy="90" r="80" fill="#ddf4ff"/>
    <circle cx="1070" cy="160" r="44" fill="#eaeef2"/>
    <circle cx="950" cy="170" r="34" fill="#eaeef2"/>
  </g>

  <path d="M0 300 C 200 250, 360 360, 560 320 S 980 300, 1200 350 L 1200 420 L 0 420 Z" fill="#f6f8fa"/>
  <path d="M0 310 C 220 270, 380 380, 580 340 S 980 320, 1200 360" fill="none" stroke="#d0d7de" stroke-width="2"/>

  <g filter="url(#soft)">
    <rect x="74" y="82" width="520" height="256" rx="18" fill="#ffffff" stroke="#d0d7de"/>
  </g>

  <g transform="translate(110, 120)">
    <rect x="0" y="0" width="56" height="56" rx="14" fill="#ddf4ff" stroke="#80ccff"/>
    <path d="M16 40V16h8v16h16V16h8v24H40L24 28v12h-8Z" fill="url(#accent)"/>
    <text x="74" y="26" font-family="ui-sans-serif, system-ui, -apple-system, Segoe UI, Roboto, Helvetica, Arial" font-size="28" font-weight="800" fill="#24292f">
      UtopiaKernel
    </text>
    <text x="74" y="58" font-family="ui-sans-serif, system-ui, -apple-system, Segoe UI, Roboto, Helvetica, Arial" font-size="14" fill="#57606a">
      Portal + Docs · Static · GitHub Pages Ready
    </text>

    <g transform="translate(0, 92)">
      <rect x="0" y="0" width="440" height="14" rx="7" fill="#eaeef2"/>
      <rect x="0" y="0" width="260" height="14" rx="7" fill="#ddf4ff"/>
      <rect x="0" y="28" width="390" height="14" rx="7" fill="#eaeef2"/>
      <rect x="0" y="56" width="410" height="14" rx="7" fill="#eaeef2"/>
      <rect x="0" y="84" width="320" height="14" rx="7" fill="#eaeef2"/>
    </g>
  </g>

  <g transform="translate(700, 110)">
    <rect x="0" y="0" width="420" height="240" rx="18" fill="#0d1117" stroke="#30363d"/>
    <rect x="24" y="26" width="160" height="12" rx="6" fill="#30363d"/>
    <rect x="24" y="58" width="300" height="10" rx="5" fill="#161b22"/>
    <rect x="24" y="80" width="280" height="10" rx="5" fill="#161b22"/>
    <rect x="24" y="102" width="260" height="10" rx="5" fill="#161b22"/>
    <rect x="24" y="136" width="340" height="10" rx="5" fill="#161b22"/>
    <rect x="24" y="158" width="320" height="10" rx="5" fill="#161b22"/>
    <rect x="24" y="180" width="220" height="10" rx="5" fill="#161b22"/>
    <circle cx="388" cy="28" r="6" fill="#58a6ff"/>
  </g>
</svg>

