<svg xmlns="http://www.w3.org/2000/svg">
  <symbol id="menu" viewBox="0 0 24 24">
    <path d="M4 6.5h16a1 1 0 1 0 0-2H4a1 1 0 1 0 0 2Zm16 5.5H4a1 1 0 1 0 0 2h16a1 1 0 1 0 0-2Zm0 7.5H4a1 1 0 1 0 0 2h16a1 1 0 1 0 0-2Z"/>
  </symbol>
  <symbol id="search" viewBox="0 0 24 24">
    <path d="M10.5 3a7.5 7.5 0 1 1 4.58 13.44l3.24 3.24a1 1 0 0 1-1.41 1.41l-3.24-3.24A7.5 7.5 0 0 1 10.5 3Zm0 2a5.5 5.5 0 1 0 0 11 5.5 5.5 0 0 0 0-11Z"/>
  </symbol>
  <symbol id="theme" viewBox="0 0 24 24">
    <path d="M12 3a1 1 0 0 1 1 1v1.25a1 1 0 1 1-2 0V4a1 1 0 0 1 1-1Zm0 15.75a1 1 0 0 1 1 1V21a1 1 0 1 1-2 0v-1.25a1 1 0 0 1 1-1ZM4 11a1 1 0 1 1 0 2H2.75a1 1 0 1 1 0-2H4Zm17.25 0a1 1 0 1 1 0 2H20a1 1 0 1 1 0-2h1.25ZM6.22 6.22a1 1 0 0 1 1.41 0l.88.88a1 1 0 1 1-1.41 1.41l-.88-.88a1 1 0 0 1 0-1.41Zm11.66 11.66a1 1 0 0 1 1.41 0l.88.88a1 1 0 1 1-1.41 1.41l-.88-.88a1 1 0 0 1 0-1.41ZM17.78 6.22a1 1 0 0 1 0 1.41l-.88.88a1 1 0 1 1-1.41-1.41l.88-.88a1 1 0 0 1 1.41 0ZM8.51 16.95a1 1 0 0 1 0 1.41l-.88.88a1 1 0 1 1-1.41-1.41l.88-.88a1 1 0 0 1 1.41 0ZM12 7.25a4.75 4.75 0 1 1 0 9.5 4.75 4.75 0 0 1 0-9.5Z"/>
  </symbol>
</svg>
